<?xml version="1.0" encoding="UTF-8"?>
<svg width="512px" height="462px" viewBox="0 0 512 462" version="1.1" xmlns="http://www.w3.org/2000/svg" xmlns:xlink="http://www.w3.org/1999/xlink">
    <!-- Generator: Sketch 51.2 (57519) - http://www.bohemiancoding.com/sketch -->
    <title>photo-camera-light</title>
    <desc>Created with Sketch.</desc>
    <defs></defs>
    <g id="Page-1" stroke="none" stroke-width="1" fill="none" fill-rule="evenodd">
        <g id="photo-camera-light" fill="#FFFFFF" fill-rule="nonzero">
            <path d="M256,132 C187.075,132 131,188.075 131,257 C131,325.925 187.075,382 256,382 C324.925,382 381,325.925 381,257 C381,188.075 324.925,132 256,132 Z M256,342 C209.131,342 171,303.869 171,257 C171,210.131 209.131,172 256,172 C302.869,172 341,210.131 341,257 C341,303.869 302.869,342 256,342 Z" id="Shape"></path>
            <path d="M452,72 L378.425,72 C376.096,72 373.997,70.729 372.917,68.673 L352.562,25.9 C352.506,25.783 352.45,25.667 352.391,25.551 C344.512,9.791 328.67,0 311.049,0 L202.376,0 C184.755,0 168.913,9.791 161.034,25.552 C160.975,25.668 160.919,25.784 160.863,25.901 L140.507,68.676 C139.427,70.729 137.329,72 135,72 L60,72 C26.916,72 0,98.916 0,132 L0,402 C0,435.084 26.916,462 60,462 L452,462 C485.084,462 512,435.084 512,402 L512,132 C512,98.916 485.084,72 452,72 Z M472,401.999 C472,413.027 463.028,421.999 452,421.999 L60,421.999 C48.972,421.999 40,413.027 40,401.999 L40,132 C40,120.972 48.972,112 60,112 L135,112 C152.62,112 168.462,102.21 176.342,86.45 C176.401,86.334 176.457,86.217 176.514,86.1 L196.87,43.325 C197.949,41.271 200.047,40 202.376,40 L311.049,40 C313.378,40 315.476,41.271 316.555,43.324 L336.911,86.099 C336.968,86.216 337.024,86.333 337.083,86.449 C344.963,102.209 360.805,111.999 378.425,111.999 L452,111.999 C463.028,111.999 472,120.971 472,131.999 L472,401.999 Z" id="Shape"></path>
            <rect id="Rectangle-path" x="392" y="152" width="40" height="40"></rect>
        </g>
    </g>
</svg>